<?xml version="1.0" standalone="no"?><!DOCTYPE svg PUBLIC "-//W3C//DTD SVG 1.1//EN" "http://www.w3.org/Graphics/SVG/1.1/DTD/svg11.dtd"><svg class="icon" height="512" viewBox="0 0 1024 1024" version="1.1" xmlns="http://www.w3.org/2000/svg"><path d="M740.82986667 498.51946667l-101.03466667-395.40053332c-6.5536-25.12213333-31.67573333-39.86773333-56.25173333-33.31413334L313.20746667 138.07146668l-1.09226667 1.63839999-48.60586667 65.536-16.93013333 22.9376 95.0272 371.91680001c6.5536 25.12213333 31.67573333 39.86773333 56.25173333 33.31413332l309.6576-79.18933333c25.12213333-6.00746667 39.86773333-31.1296 33.31413334-55.7056zM317.0304 201.42293335c-0.54613333 0.54613333-0.54613333 1.6384-0.54613333 1.63839999l-25.12213334 5.46133333 20.20693334-27.30666667c0 0.54613333 4.9152 16.93013333 5.46133333 20.20693334z m383.93173333 318.94186665L386.38933333 600.64640001c-8.192 2.18453333-16.93013333-2.73066667-18.56853333-10.92266667L276.61653333 232.00640001l64.44373334-16.38400001s1.6384-3.82293333 2.73066666-6.5536c-1.09226667-5.46133333-7.09973333-25.12213333-12.01493333-40.41386666l262.144-67.1744c8.192-2.18453333 16.93013333 2.73066667 18.56853333 10.92266666l98.85013334 388.3008c3.2768 9.28426667-1.6384 17.47626667-10.37653334 19.6608z" fill="#8a8a8a" /><path d="M366.1824 322.1184c1.6384 7.09973333 6.5536 13.1072 12.56106667 16.93013335 6.00746667 3.82293333 14.19946667 4.9152 21.2992 3.27679999 7.09973333-1.6384 13.1072-6.5536 16.93013333-12.56106666 3.82293333-6.00746667 4.9152-14.19946667 3.2768-21.29920001-1.6384-7.09973333-6.5536-13.1072-12.56106667-16.93013333-6.00746667-3.82293333-14.19946667-4.9152-21.2992-3.2768-7.09973333 1.6384-13.1072 6.5536-16.93013333 12.56106667-3.82293333 6.5536-4.9152 14.7456-3.2768 21.29919999zM542.03733333 277.33546667c1.6384 7.09973333 6.5536 13.1072 12.56106667 16.93013333 6.00746667 3.82293333 14.19946667 4.9152 21.2992 3.2768 7.09973333-1.6384 13.1072-6.5536 16.93013333-12.56106666 3.82293333-6.00746667 4.9152-14.19946667 3.2768-21.2992-1.6384-7.09973333-6.5536-13.1072-12.56106666-16.93013333-6.00746667-3.82293333-14.19946667-4.9152-21.2992-3.27680001-7.09973333 1.6384-13.1072 6.5536-16.93013334 12.56106668-3.82293333 6.5536-4.9152 14.19946667-3.2768 21.29919999zM388.57386667 240.74453335s-28.94506667 27.8528-44.2368 24.576c2.73066667 13.1072 25.12213333 28.39893333 44.2368-24.576zM588.45866667 202.51520001c-12.01493333 10.37653333-50.7904 0-50.7904 0 42.05226667 37.6832 54.0672 13.1072 50.7904 0zM481.41653333 384.92373334c1.09226667-12.56106667 22.9376-37.6832 49.152-12.56106667 1.6384 2.18453333 1.09226667 4.9152 1.09226667 4.9152s-26.2144-7.09973333-49.152 12.56106667c-1.09226667-2.18453333-1.6384-3.82293333-1.09226667-4.9152zM509.26933333 481.0432l-125.61066666 32.22186667c-7.64586667 1.6384-15.29173333-2.73066667-16.93013334-9.8304-1.6384-7.64586667 2.73066667-15.29173333 9.8304-16.93013332l125.61066667-32.22186668c7.64586667-1.6384 15.29173333 2.73066667 16.93013333 9.8304 2.18453333 7.09973333-2.18453333 14.7456-9.8304 16.93013333zM681.84746667 501.25013335l-282.35093334 72.08959999c-7.64586667 1.6384-15.29173333-2.73066667-16.93013333-9.8304-1.6384-7.64586667 2.73066667-15.29173333 9.8304-16.93013333l282.35093333-72.08960001c7.64586667-1.6384 15.29173333 2.73066667 16.93013334 9.8304 2.18453333 7.09973333-2.73066667 14.7456-9.8304 16.93013335z" fill="#8a8a8a" /><path d="M747.38346667 784.1472H335.59893333c-6.00746667 0.54613333-12.01493333-1.6384-15.83786666-4.9152-4.36906667-3.82293333-6.5536-8.73813333-6.00746667-13.65333333l-44.2368-258.86719999-26.76053333-116.32640001c-2.73066667-31.67573333-33.31413333-56.25173333-70.99733334-56.25173333h-35.49866666c-6.00746667-0.54613333-12.01493333 1.6384-15.83786667 4.9152-4.36906667 3.82293333-6.5536 8.73813333-6.00746667 13.65333333-0.54613333 4.9152 1.6384 9.8304 6.00746667 13.65333333s10.37653333 5.46133333 15.83786667 4.9152h31.1296c13.1072 0.54613333 24.02986667 8.192 26.76053333 18.56853334l26.76053333 120.14933333 44.2368 255.5904c4.36906667 30.58346667 34.4064 54.61333333 70.99733334 56.25173334h411.78453333c6.00746667 0.54613333 12.01493333-1.6384 15.83786667-4.9152 4.36906667-3.82293333 6.5536-8.73813333 6.00746666-13.65333334-1.09226667-10.37653333-10.37653333-18.0224-22.39146666-19.11466667M804.72746667 416.05333334c-12.56106667-11.4688-30.03733333-18.0224-48.60586667-18.56853334H317.57653333c-14.19946667 1.09226667-25.66826667 10.37653333-26.76053333 22.39146667-0.54613333 4.9152 1.6384 9.8304 6.00746667 13.65333334s10.37653333 5.46133333 15.83786666 4.9152h438.54506667c4.9152-0.54613333 9.8304 1.09226667 13.1072 3.82293333 5.46133333 6.5536 8.73813333 14.19946667 8.73813333 22.39146666l-39.86773333 195.51573334c-1.6384 11.4688-13.1072 19.6608-26.76053333 18.56853334l-340.7872 22.39146666c-6.5536 1.09226667-12.56106667 3.82293333-17.47626667 7.64586667-3.2768 4.36906667-4.9152 9.8304-4.36906667 15.29173333 1.09226667 9.8304 10.37653333 18.0224 22.39146667 18.56853334l340.7872-22.39146668c35.49866667 0 66.08213333-22.39146667 70.99733333-52.4288l44.2368-195.51573332c4.36906667-19.6608-2.18453333-40.41386667-17.47626666-56.25173334m-464.75946667 538.48746667c26.76053333 0 48.60586667-21.84533333 48.60586667-48.60586667s-21.84533333-48.60586667-48.60586667-48.60586667-48.60586667 21.84533333-48.60586667 48.60586667 21.84533333 48.60586667 48.60586667 48.60586667m353.8944 0c19.6608 0 37.6832-12.01493333 44.78293333-30.03733333 7.64586667-18.0224 3.2768-39.3216-10.37653333-52.97493334-14.19946667-14.19946667-34.95253333-18.0224-52.97493333-10.37653333-18.0224 7.64586667-30.03733333 25.12213333-30.03733334 44.78293333 0.54613333 26.76053333 21.84533333 48.60586667 48.60586667 48.60586667" fill="#8a8a8a" /></svg>